<svg width="9" height="7" viewBox="0 0 9 7" fill="none" xmlns="http://www.w3.org/2000/svg">
<path d="M5.92676 0.141192C5.83498 0.0655537 5.69949 0.0159467 5.54991 0.00322648C5.40034 -0.00949372 5.24888 0.015709 5.12867 0.0733194C5.05795 0.108527 5.00091 0.153469 4.96189 0.204714L0.0617556 6.39328C-0.00764703 6.48098 -0.0190467 6.58249 0.0300624 6.6755C0.0791714 6.76851 0.18477 6.8454 0.323647 6.88927C0.404824 6.91519 0.494569 6.92861 0.585539 6.92843H7.41265C7.522 6.93019 7.62979 6.91179 7.72282 6.87547C7.81585 6.83915 7.89009 6.78649 7.93643 6.72394C9.40992 4.80263 8.51673 1.88151 5.92676 0.141192Z" fill="url(#paint0_linear_2005_1164)"/>
<defs>
<linearGradient id="paint0_linear_2005_1164" x1="8.62424" y1="1.08705" x2="6.19711" y2="7.74617" gradientUnits="userSpaceOnUse">
<stop stop-color="#0052CC"/>
<stop offset="0.92" stop-color="#2684FF"/>
</linearGradient>
</defs>
</svg>
