<svg width="13" height="13" viewBox="0 0 13 13" fill="none" xmlns="http://www.w3.org/2000/svg">
<path d="M2.08847 0.200811C0.866915 1.38749 0.155006 2.75425 0.0225838 4.16702C-0.109839 5.57978 0.341775 6.99001 1.33312 8.25935L4.62468 12.4152C4.67331 12.4766 4.74807 12.5283 4.84058 12.5644C4.93309 12.6005 5.0397 12.6197 5.14847 12.6197H11.9742C12.0512 12.6198 12.1274 12.6103 12.1986 12.5918C12.2697 12.5733 12.3344 12.546 12.3888 12.5117C12.4433 12.4773 12.4864 12.4365 12.5158 12.3916C12.5452 12.3466 12.5602 12.2985 12.56 12.2499C12.5601 12.1926 12.5393 12.136 12.4994 12.0846L3.08504 0.199071C3.04035 0.139514 2.9698 0.0891893 2.88159 0.0539487C2.79338 0.0187081 2.69114 0 2.58675 0C2.48236 0 2.38012 0.0187081 2.29191 0.0539487C2.2037 0.0891893 2.13315 0.139514 2.08847 0.199071V0.200811Z" fill="#2684FF"/>
</svg>
