<svg width="14" height="6" viewBox="0 0 14 6" fill="none" xmlns="http://www.w3.org/2000/svg">
<path d="M13.275 1.12015C13.2048 1.06591 13.1163 1.02222 13.0159 0.992258C12.9156 0.962298 12.806 0.946816 12.695 0.946937H3.18406L2.9925 0.260802C2.97207 0.187716 2.91151 0.121511 2.82144 0.0738152C2.73137 0.0261197 2.61756 -1.55932e-05 2.5 6.97976e-09H0.5C0.367392 6.97976e-09 0.240215 0.0332555 0.146447 0.0924505C0.0526784 0.151646 0 0.231931 0 0.315646C0 0.39936 0.0526784 0.479646 0.146447 0.538841C0.240215 0.598036 0.367392 0.631291 0.5 0.631291H2.08062L3.5075 5.73646C3.52793 5.80955 3.58849 5.87576 3.67856 5.92345C3.76863 5.97115 3.88244 5.99728 4 5.99727H12C12.1326 5.99727 12.2598 5.96401 12.3536 5.90482C12.4473 5.84562 12.5 5.76534 12.5 5.68162C12.5 5.59791 12.4473 5.51762 12.3536 5.45843C12.2598 5.39923 12.1326 5.36598 12 5.36598H4.41937L4.24312 4.73468H11.795C11.9684 4.73454 12.1364 4.69659 12.2706 4.62724C12.4047 4.5579 12.4968 4.46142 12.5312 4.35413L13.4312 1.51332C13.4529 1.44457 13.4502 1.37364 13.4231 1.30565C13.3961 1.23765 13.3455 1.17429 13.275 1.12015V1.12015Z" fill="#4299E1"/>
</svg>
