<svg width="20" height="17" viewBox="0 0 20 17" fill="none" xmlns="http://www.w3.org/2000/svg">
<g clip-path="url(#clip0_2005_1055)">
<path d="M18.187 0H1.81305C0.811719 0 0 0.649792 0 1.45137V14.5589C0 15.3605 0.811719 16.0103 1.81305 16.0103H18.187C19.1883 16.0103 20 15.3605 20 14.5589V1.45137C20 0.649792 19.1883 0 18.187 0Z" fill="#DC395F"/>
<path d="M6.68391 5.0379C7.34876 5.0379 7.90571 4.62076 7.90571 4.07403C7.90571 3.52768 7.34876 3.1106 6.68391 3.1106C6.01907 3.1106 5.46227 3.52768 5.46227 4.07403C5.46227 4.62069 6.01907 5.0379 6.68391 5.0379ZM4.15063 10.1987C4.07883 10.4433 4.04282 10.7073 4.04282 10.9227C4.04282 11.7714 4.61774 12.3348 5.83954 12.3348C6.85282 12.3348 7.6743 11.8532 8.26579 11.0753L7.90461 12.2357H9.91672L11.0667 8.54334C11.3542 7.60849 11.9112 7.12324 12.7557 7.12324C13.4205 7.12324 13.8337 7.4542 13.8337 8.00056C13.8337 8.15884 13.8157 8.33127 13.7438 8.51833L13.1509 10.2155C13.061 10.46 13.0252 10.7047 13.0252 10.9346C13.0252 11.7403 13.618 12.3297 14.8577 12.3297C15.9178 12.3297 16.7622 11.7834 17.2294 10.4745L16.4389 10.2302C16.0436 11.1071 15.7022 11.2656 15.4327 11.2656C15.1631 11.2656 15.0194 11.1219 15.0194 10.8344C15.0194 10.7049 15.0555 10.5613 15.1092 10.3883L15.6843 8.73484C15.828 8.34659 15.882 8.00231 15.882 7.68598C15.882 6.44906 14.9476 5.80352 13.8157 5.80352C12.7557 5.80352 11.6776 6.56895 11.1387 7.37453L11.5338 5.9286H8.46165L8.0304 7.20217H9.46782L8.58266 10.039C7.88758 11.2759 6.61079 11.296 6.45055 11.2673C6.18743 11.2198 6.01915 11.1398 6.01915 10.8661C6.01915 10.7082 6.05508 10.4813 6.14493 10.2079L7.49258 5.9286H4.07883L3.64758 7.20217H5.06688L4.15071 10.1987" fill="white"/>
</g>
<defs>
<clipPath id="clip0_2005_1055">
<rect width="20" height="16.0103" fill="white"/>
</clipPath>
</defs>
</svg>
