<svg width="20" height="14" viewBox="0 0 20 14" fill="none" xmlns="http://www.w3.org/2000/svg">
<g clip-path="url(#clip0_2005_1074)">
<path d="M19.7594 6.2623L10.8966 0.625426L10.0378 0.0792236L3.36613 4.32253L0.315322 6.2623C0.162936 6.35972 0.0773926 6.49155 0.0773926 6.62897C0.0773926 6.76639 0.162936 6.89822 0.315322 6.99564L6.41049 10.8723L10.0378 13.1787L16.7086 8.93542L16.8125 8.86992L19.7594 6.99857C19.8357 6.95035 19.8963 6.893 19.9377 6.82982C19.9791 6.76664 20.0004 6.69887 20.0004 6.63043C20.0004 6.562 19.9791 6.49423 19.9377 6.43105C19.8963 6.36787 19.8357 6.31052 19.7594 6.2623ZM10.0378 8.56583L6.99252 6.62897L10.0378 4.69212L13.0822 6.62897L10.0378 8.56583Z" fill="#2684FF"/>
<path d="M10.0374 4.6922C9.07966 4.0832 8.53976 3.25789 8.53563 2.39654C8.53149 1.53519 9.06346 0.7078 10.0153 0.0950928L3.35193 4.33138L6.97832 6.63782L10.0374 4.6922Z" fill="url(#paint0_linear_2005_1074)"/>
<path d="M13.0901 6.62378L10.0375 8.5659C10.9988 9.17751 11.5389 10.0069 11.5389 10.8718C11.5389 11.7366 10.9988 12.566 10.0375 13.1776L16.7193 8.93023L13.0901 6.62378Z" fill="url(#paint1_linear_2005_1074)"/>
</g>
<defs>
<linearGradient id="paint0_linear_2005_1074" x1="9.49216" y1="2.73254" x2="7.04236" y2="6.58348" gradientUnits="userSpaceOnUse">
<stop offset="0.18" stop-color="#0052CC"/>
<stop offset="1" stop-color="#2684FF"/>
</linearGradient>
<linearGradient id="paint1_linear_2005_1074" x1="776.104" y1="568.747" x2="1078.57" y2="877.055" gradientUnits="userSpaceOnUse">
<stop offset="0.18" stop-color="#0052CC"/>
<stop offset="1" stop-color="#2684FF"/>
</linearGradient>
<clipPath id="clip0_2005_1074">
<rect width="20" height="13.2571" fill="white"/>
</clipPath>
</defs>
</svg>
