<svg width="20" height="17" viewBox="0 0 20 17" fill="none" xmlns="http://www.w3.org/2000/svg">
<g clip-path="url(#clip0_2005_1134)">
<path fill-rule="evenodd" clip-rule="evenodd" d="M7.33266 0C6.22708 0.000669135 5.33233 0.735379 5.33315 1.64072C5.33233 2.54606 6.2279 3.28077 7.33347 3.28144H9.3338V1.64139C9.33462 0.736048 8.43905 0.00133827 7.33266 0C7.33347 0 7.33347 0 7.33266 0V0ZM7.33266 4.37614H2.00009C0.894512 4.37681 -0.00105903 5.11152 -0.000241908 6.01686C-0.00187616 6.9222 0.893695 7.65691 1.99927 7.65825H7.33266C8.43823 7.65758 9.3338 6.92287 9.33298 6.01753C9.3338 5.11152 8.43823 4.37681 7.33266 4.37614Z" fill="#36C5F0"/>
<path fill-rule="evenodd" clip-rule="evenodd" d="M20 6.01759C20.0008 5.11225 19.1052 4.37754 17.9997 4.37687C16.8941 4.37754 15.9985 5.11225 15.9993 6.01759V7.65898H17.9997C19.1052 7.65831 20.0008 6.9236 20 6.01759ZM14.6666 6.01759V1.64145C14.6674 0.736781 13.7727 0.00207069 12.6671 0.000732422C11.5615 0.00140156 10.6659 0.736112 10.6668 1.64145V6.01759C10.6651 6.92293 11.5607 7.65764 12.6663 7.65898C13.7718 7.65831 14.6674 6.9236 14.6666 6.01759Z" fill="#2EB67D"/>
<path fill-rule="evenodd" clip-rule="evenodd" d="M12.6663 16.4111C13.7719 16.4104 14.6675 15.6757 14.6667 14.7704C14.6675 13.8651 13.7719 13.1303 12.6663 13.1297H10.666V14.7704C10.6652 15.6751 11.5608 16.4098 12.6663 16.4111ZM12.6663 12.0343H17.9997C19.1053 12.0336 20.0009 11.2989 20.0001 10.3936C20.0017 9.48825 19.1061 8.75354 18.0005 8.7522H12.6672C11.5616 8.75287 10.666 9.48758 10.6668 10.3929C10.666 11.2989 11.5608 12.0336 12.6663 12.0343Z" fill="#ECB22E"/>
<path fill-rule="evenodd" clip-rule="evenodd" d="M5.58721e-07 10.3937C-0.000816568 11.299 0.894755 12.0337 2.00033 12.0344C3.1059 12.0337 4.00147 11.299 4.00065 10.3937V8.75293H2.00033C0.894755 8.7536 -0.000816568 9.48831 5.58721e-07 10.3937ZM5.33339 10.3937V14.7698C5.33175 15.6751 6.22733 16.4099 7.3329 16.4112C8.43847 16.4105 9.33404 15.6758 9.33323 14.7705V10.395C9.33486 9.48965 8.43929 8.75494 7.33371 8.7536C6.22732 8.7536 5.33257 9.48831 5.33339 10.3937C5.33339 10.3943 5.33339 10.3937 5.33339 10.3937Z" fill="#E01E5A"/>
</g>
<defs>
<clipPath id="clip0_2005_1134">
<rect width="20" height="16.4105" fill="white"/>
</clipPath>
</defs>
</svg>
