<svg width="20" height="13" viewBox="0 0 20 13" fill="none" xmlns="http://www.w3.org/2000/svg">
<path d="M10 0C4.47697 0 0 2.82627 0 6.31291C0 9.79955 4.47697 12.6258 10 12.6258C15.523 12.6258 20 9.79955 20 6.31291C20 2.8267 15.523 0.000430769 10 0ZM14.5861 9.10472C14.4067 9.29082 14.0225 9.34897 13.7291 9.23568C11.3811 8.32977 8.42511 8.12516 4.94439 8.627C4.60867 8.67568 4.27431 8.543 4.19788 8.33106C4.12078 8.11913 4.33026 7.90805 4.66667 7.8598C8.47561 7.31057 11.7434 7.54707 14.3794 8.56368C14.6728 8.67783 14.7663 8.91949 14.5861 9.10472ZM15.8096 7.38639C15.5838 7.61814 15.1034 7.69051 14.7369 7.54836C12.0498 6.50547 7.95155 6.2035 4.77243 6.81261C4.36029 6.89144 3.92494 6.74454 3.79939 6.48479C3.6752 6.22461 3.90788 5.95021 4.31934 5.87094C7.95087 5.17525 12.4661 5.51211 15.5524 6.70965C15.9195 6.85224 16.0355 7.15507 15.8096 7.38639ZM15.9147 5.59611C12.6912 4.38781 7.37427 4.27667 4.29683 4.86596C3.8028 4.96073 3.28011 4.78455 3.13067 4.47267C2.98124 4.16079 3.25964 3.83083 3.75435 3.73606C7.28693 3.05932 13.1586 3.18984 16.8693 4.58036C17.3135 4.74707 17.4596 5.10935 17.1962 5.38935C16.9335 5.67021 16.3582 5.76282 15.9147 5.59611Z" fill="#2EBD59"/>
</svg>
