<svg width="16" height="11" viewBox="0 0 16 11" fill="none" xmlns="http://www.w3.org/2000/svg">
<path d="M0.999939 7.41736C0.999939 7.71036 1.18431 7.99136 1.5125 8.19855C1.84069 8.40573 2.28581 8.52212 2.74994 8.52212H13.2499C13.7141 8.52212 14.1592 8.40573 14.4874 8.19855C14.8156 7.99136 14.9999 7.71036 14.9999 7.41736V4.37927H0.999939V7.41736ZM3.06244 5.91805C3.06244 5.76108 3.16121 5.61055 3.33703 5.49955C3.51284 5.38856 3.7513 5.32621 3.99994 5.32621H5.49994C5.74858 5.32621 5.98703 5.38856 6.16285 5.49955C6.33867 5.61055 6.43744 5.76108 6.43744 5.91805V6.3126C6.43744 6.46957 6.33867 6.6201 6.16285 6.73109C5.98703 6.84208 5.74858 6.90444 5.49994 6.90444H3.99994C3.7513 6.90444 3.51284 6.84208 3.33703 6.73109C3.16121 6.6201 3.06244 6.46957 3.06244 6.3126V5.91805Z" fill="#F6AD55"/>
<path d="M13.2499 1.57764H2.74994C2.28581 1.57764 1.84069 1.69403 1.5125 1.90121C1.18431 2.1084 0.999939 2.3894 0.999939 2.6824V3.19532H14.9999V2.6824C14.9999 2.3894 14.8156 2.1084 14.4874 1.90121C14.1592 1.69403 13.7141 1.57764 13.2499 1.57764V1.57764Z" fill="#F6AD55"/>
</svg>
