<svg width="20" height="16" viewBox="0 0 20 16" fill="none" xmlns="http://www.w3.org/2000/svg">
<g clip-path="url(#clip0_2005_1180)">
<path d="M3.54167 0H16.4583C18.4167 0 20 1.26748 20 2.83515V12.7749C20 14.3425 18.4167 15.61 16.4583 15.61H3.54167C1.58333 15.61 0 14.3425 0 12.7749V2.83515C0 1.26748 1.58333 0 3.54167 0Z" fill="#470137"/>
<path d="M10.5167 4.10263L8.01672 7.40475L10.6834 10.907C10.7001 10.9337 10.7084 10.9604 10.7001 10.987C10.6917 11.0137 10.6584 10.9937 10.6084 11.0004H8.70006C8.56672 11.0004 8.47505 10.9937 8.41672 10.927C8.24172 10.6468 8.05839 10.3733 7.88339 10.0931C7.70839 9.81963 7.51672 9.53945 7.31672 9.2526C7.11672 8.96575 6.91672 8.6789 6.71672 8.38538H6.70005C6.52505 8.67223 6.33339 8.95908 6.14172 9.24593C5.95005 9.53278 5.75839 9.81963 5.57505 10.0998C5.38339 10.38 5.19172 10.6668 5.00005 10.9404C4.96672 11.0071 4.90005 11.0137 4.80839 11.0137H2.97505C2.94172 11.0137 2.91672 11.0271 2.91672 10.9937C2.90839 10.967 2.91672 10.9404 2.93339 10.9203L5.52505 7.51815L3.00005 4.09596C2.97505 4.06927 2.96672 4.04259 2.98339 4.02925C3.00005 4.00923 3.03339 4.00256 3.06672 4.00256H4.95839C5.00005 4.00256 5.04172 4.00923 5.07505 4.01591C5.10839 4.02925 5.13339 4.04926 5.15839 4.07594C5.31672 4.36279 5.50006 4.64965 5.69172 4.9365C5.89172 5.22335 6.08339 5.50353 6.29172 5.78371C6.49172 6.06389 6.67505 6.34407 6.85005 6.63092H6.86672C7.04172 6.3374 7.22505 6.05055 7.40839 5.77037C7.59172 5.49019 7.78339 5.21001 7.97505 4.92983C8.16672 4.64965 8.35005 4.36279 8.53339 4.08929C8.54172 4.0626 8.55839 4.03592 8.58339 4.02258C8.61672 4.00923 8.65005 4.00256 8.69172 4.00923H10.4501C10.4917 4.00256 10.5334 4.02258 10.5417 4.05593C10.5501 4.0626 10.5334 4.08929 10.5167 4.10263Z" fill="#FF61F6"/>
<path d="M14.3667 11.1405C13.75 11.1471 13.1333 11.0471 12.575 10.8403C12.05 10.6468 11.6167 10.3266 11.3167 9.93303C11.0083 9.5261 10.8583 9.01911 10.8583 8.41205C10.85 7.9184 11.0083 7.43142 11.3167 7.00448C11.6333 6.57087 12.0917 6.21064 12.6417 5.97048C13.225 5.71031 13.925 5.58357 14.75 5.58357C14.7917 5.58357 14.85 5.58357 14.925 5.59024C15 5.59691 15.0833 5.59691 15.1833 5.60358V3.49556C15.1833 3.44886 15.2083 3.42218 15.2667 3.42218H16.9583C17 3.41551 17.0333 3.44219 17.0417 3.46888C17.0417 3.47555 17.0417 3.48222 17.0417 3.48222V9.83296C17.0417 9.95304 17.05 10.0865 17.0583 10.2332C17.075 10.3733 17.0833 10.5067 17.0917 10.6201C17.0917 10.6668 17.0667 10.7069 17.0083 10.7269C16.575 10.8736 16.1167 10.9804 15.65 11.0471C15.225 11.1071 14.8 11.1405 14.3667 11.1405ZM15.1833 9.80628V6.87106C15.1083 6.85772 15.0333 6.84438 14.9583 6.83771C14.8667 6.83103 14.775 6.82436 14.6833 6.82436C14.3583 6.82436 14.0333 6.87773 13.7417 6.99781C13.4583 7.11121 13.2167 7.27799 13.0333 7.49146C12.85 7.70493 12.7583 7.99178 12.7583 8.33867C12.75 8.57215 12.8 8.80564 12.9 9.02578C12.9833 9.20589 13.1083 9.366 13.275 9.49941C13.4333 9.61949 13.625 9.71288 13.8417 9.76625C14.0667 9.82629 14.3 9.85297 14.5333 9.85297C14.6583 9.85297 14.775 9.8463 14.8833 9.83963C14.9917 9.8463 15.0833 9.83296 15.1833 9.80628Z" fill="#FF61F6"/>
</g>
<defs>
<clipPath id="clip0_2005_1180">
<rect width="20" height="15.61" fill="white"/>
</clipPath>
</defs>
</svg>
